<?xml version="1.0" encoding="UTF-8"?>
<svg id="Layer_5" data-name="Layer 5" xmlns="http://www.w3.org/2000/svg" viewBox="0 0 173 114">
  <defs>
    <style>
      .cls-1 {
        letter-spacing: 0em;
      }

      .cls-2 {
        font-family: Times-Bold, Times;
        font-size: 9.4px;
      }

      .cls-2, .cls-3 {
        fill: #219c90;
      }

      .cls-2, .cls-4 {
        font-weight: 700;
      }

      .cls-5 {
        letter-spacing: 0em;
      }

      .cls-3, .cls-6, .cls-7 {
        stroke-width: 0px;
      }

      .cls-4 {
        fill: #fbb03b;
        font-family: Charm-Bold, Charm;
        font-size: 4.9px;
      }

      .cls-8 {
        letter-spacing: 0em;
      }

      .cls-9 {
        letter-spacing: 0em;
      }

      .cls-10 {
        letter-spacing: 0em;
      }

      .cls-11 {
        letter-spacing: 0em;
      }

      .cls-6 {
        fill: #03a587;
      }

      .cls-7 {
        fill: #d8d5d0;
      }

      .cls-12 {
        letter-spacing: 0em;
      }

      .cls-13 {
        letter-spacing: 0em;
      }

      .cls-14 {
        letter-spacing: 0em;
      }
    </style>
  </defs>
  <text class="cls-2" transform="translate(53.7 49.5) scale(1.9 2)"><tspan x="0" y="0">PRISMA</tspan><tspan x="0" y="7.8">P</tspan><tspan class="cls-1" x="5.7" y="7.8">R</tspan><tspan x="12.2" y="7.8">OPE</tspan><tspan class="cls-10" x="31.5" y="7.8">R</tspan><tspan x="37.9" y="7.8">TIES</tspan></text>
  <text class="cls-4" transform="translate(53.9 77) scale(1.9 2)"><tspan class="cls-8" x="0" y="0">De</tspan><tspan class="cls-14" x="5.3" y="0">v</tspan><tspan class="cls-11" x="7.7" y="0">elop </tspan><tspan class="cls-14" x="17.5" y="0">y</tspan><tspan class="cls-13" x="20.2" y="0">o</tspan><tspan class="cls-14" x="22.4" y="0">u</tspan><tspan class="cls-11" x="25.1" y="0">r </tspan><tspan class="cls-12" x="28.9" y="0">f</tspan><tspan class="cls-13" x="31" y="0">u</tspan><tspan class="cls-12" x="33.8" y="0">t</tspan><tspan class="cls-14" x="35.6" y="0">u</tspan><tspan class="cls-12" x="38.4" y="0">r</tspan><tspan class="cls-11" x="40.4" y="0">e </tspan><tspan class="cls-5" x="44.1" y="0">dr</tspan><tspan class="cls-11" x="48.5" y="0">e</tspan><tspan class="cls-9" x="50.5" y="0">am</tspan><tspan class="cls-11" x="56.6" y="0">s</tspan></text>
  <g>
    <g>
      <polygon class="cls-7" points="29.5 46.5 29.4 46.5 29.4 46.4 29.5 46.5"/>
      <g>
        <path class="cls-7" d="m5.7,74.8c0,2.2,1.8,3.9,3.9,3.9h5.4c-3.1-1.8-6.2-3.6-9.4-5.4v1.5Z"/>
        <path class="cls-7" d="m45.1,78.7c2.2,0,3.9-1.8,3.9-3.9v-1.2c-3,1.7-6,3.4-9,5.2h5Z"/>
        <path class="cls-7" d="m26.6,71.8c.7.4,1.1.5,1.8,0,5.7-3.3,11.4-6.6,17.2-9.8.2-.1.4-.3.7-.5-1.2-1.5-2.3-2.9-3.5-4.3,0-.1-.6,0-.8.1-3.3,1.8-6.6,3.6-9.8,5.5-1.4.8-2.7,1.5-4.1,2.3-.2.1-.7.2-.9,0-5-2.7-9.9-5.5-14.9-8.3-.3-.2-.6-.4-1-.6,1.9-2.4,3.8-4.7,5.7-7,1.7.9,3.3,1.9,4.9,2.8,1.8,1,3.5,2,5.3,3,.3.1.7.2.9,0,3-1.7,6-3.4,9.1-5.2-1.2-1.4-2.3-2.9-3.5-4.3-1.9,1.1-3.7,2.1-5.6,3.1-.2.1-.6.2-.7.1-2.3-1.2-4.5-2.5-6.8-3.9,2.3-2.7,4.5-5.4,6.8-8.1.2.2.5.4.8.6-2,2.4-4,4.8-6,7.2,1.7,1,3.4,1.9,5.1,2.8.2.1.7,0,.9-.1,1.9-1,3.8-2.1,5.8-3.3,1.6,2,3.3,4,4.9,6.1-.3.2-.5.4-.7.5-3.3,1.9-6.7,3.8-10,5.7-.5.3-.8.3-1.3,0-3.2-1.8-6.4-3.6-9.6-5.5-1.3,1.6-2.6,3.2-3.9,4.8,1.3.7,2.5,1.4,3.8,2.1,3.2,1.8,6.4,3.5,9.6,5.3.6.3,1,.3,1.6,0,4.6-2.6,9.1-5.1,13.7-7.6.3-.2.6-.3,1-.5,1.9,2.3,3.8,4.7,5.8,7.1-1.1.6-2.1,1.2-3.2,1.8-5.8,3.3-11.6,6.6-17.4,10-.6.3-1,.3-1.5,0-6.2-3.6-12.4-7.1-18.6-10.6-.1,0-.3-.1-.5-.2-.7.8-1.4,1.7-2,2.5v5.6s0,0,0,0c4.4,2.5,8.7,5,13.1,7.5h17.5c4.3-2.5,8.5-4.9,12.8-7.4v-32c0-2.2-1.8-3.9-3.9-3.9H9.6c-2.2,0-3.9,1.8-3.9,3.9v23.3c.5-.6,1-1.3,1.6-2,6.5,3.7,13,7.4,19.4,11.1Z"/>
        <polygon class="cls-7" points="20.4 54.5 20.3 54.6 20.3 54.5 20.4 54.5"/>
      </g>
    </g>
    <g>
      <polygon class="cls-6" points="29.5 46.5 29.4 46.5 29.4 46.4 29.5 46.5"/>
      <g>
        <path class="cls-3" d="m5.7,74.8c0,2.2,1.8,3.9,3.9,3.9h5.4c-3.1-1.8-6.2-3.6-9.4-5.4v1.5Z"/>
        <path class="cls-3" d="m45.1,78.7c2.2,0,3.9-1.8,3.9-3.9v-1.2c-3,1.7-6,3.4-9,5.2h5Z"/>
        <path class="cls-3" d="m26.6,71.8c.7.4,1.1.5,1.8,0,5.7-3.3,11.4-6.6,17.2-9.8.2-.1.4-.3.7-.5-1.2-1.5-2.3-2.9-3.5-4.3,0-.1-.6,0-.8.1-3.3,1.8-6.6,3.6-9.8,5.5-1.4.8-2.7,1.5-4.1,2.3-.2.1-.7.2-.9,0-5-2.7-9.9-5.5-14.9-8.3-.3-.2-.6-.4-1-.6,1.9-2.4,3.8-4.7,5.7-7,1.7.9,3.3,1.9,4.9,2.8,1.8,1,3.5,2,5.3,3,.3.1.7.2.9,0,3-1.7,6-3.4,9.1-5.2-1.2-1.4-2.3-2.9-3.5-4.3-1.9,1.1-3.7,2.1-5.6,3.1-.2.1-.6.2-.7.1-2.3-1.2-4.5-2.5-6.8-3.9,2.3-2.7,4.5-5.4,6.8-8.1.2.2.5.4.8.6-2,2.4-4,4.8-6,7.2,1.7,1,3.4,1.9,5.1,2.8.2.1.7,0,.9-.1,1.9-1,3.8-2.1,5.8-3.3,1.6,2,3.3,4,4.9,6.1-.3.2-.5.4-.7.5-3.3,1.9-6.7,3.8-10,5.7-.5.3-.8.3-1.3,0-3.2-1.8-6.4-3.6-9.6-5.5-1.3,1.6-2.6,3.2-3.9,4.8,1.3.7,2.5,1.4,3.8,2.1,3.2,1.8,6.4,3.5,9.6,5.3.6.3,1,.3,1.6,0,4.6-2.6,9.1-5.1,13.7-7.6.3-.2.6-.3,1-.5,1.9,2.3,3.8,4.7,5.8,7.1-1.1.6-2.1,1.2-3.2,1.8-5.8,3.3-11.6,6.6-17.4,10-.6.3-1,.3-1.5,0-6.2-3.6-12.4-7.1-18.6-10.6-.1,0-.3-.1-.5-.2-.7.8-1.4,1.7-2,2.5v5.6s0,0,0,0c4.4,2.5,8.7,5,13.1,7.5h17.5c4.3-2.5,8.5-4.9,12.8-7.4v-32c0-2.2-1.8-3.9-3.9-3.9H9.6c-2.2,0-3.9,1.8-3.9,3.9v23.3c.5-.6,1-1.3,1.6-2,6.5,3.7,13,7.4,19.4,11.1Z"/>
        <polygon class="cls-3" points="20.4 54.5 20.3 54.6 20.3 54.5 20.4 54.5"/>
      </g>
    </g>
  </g>
</svg>